<svg xmlns="http://www.w3.org/2000/svg" viewBox="0 0 100 100">
  <path
    fill="currentColor"
    d="
      M 16 30
      V 66
      V 70
      H 24
      V 66
      V 54
      H 34
      C 40.58004 54 46 48.580034 46 42
      C 46 35.419966 40.58004 30 34 30
      Z
      M 24 38
      H 34
      C 36.256522 38 38 39.743479 38 42
      C 38 44.256521 36.256522 46 34 46
      H 24
      Z
    "
  />
  <path
    fill="currentColor"
    d="
      M 70.216406 30.029688
      C 67.306588 29.879861 64.34463 30.36342 61.546094 31.522656
      C 54.08334 34.61395 49.200781 41.922465 49.200781 50
      C 49.200782 58.077535 54.08334 65.386052 61.546094 68.477344
      C 69.008857 71.56864 77.630349 69.854028 83.342188 64.142188
      L 77.685156 58.485156
      C 74.24507 61.925244 69.102268 62.948455 64.607812 61.086719
      C 60.113372 59.224989 57.200782 54.865187 57.200781 50
      C 57.200781 45.134813 60.113372 40.775012 64.607812 38.913281
      C 69.102268 37.051544 74.24507 38.074757 77.685156 41.514844
      L 83.342188 35.857812
      C 79.772288 32.287913 75.066103 30.279399 70.216406 30.029688
      Z
    "
  />
</svg>
