<svg xmlns="http://www.w3.org/2000/svg" viewBox="0 0 100 100">
  <path
    fill="currentColor"
    d="
      M 33.2 30
      C 30.933333 30 27.805984 30.425133 24.610938 32.022656
      C 21.415891 33.620179 18 37.133333 18 42
      C 18 46.533333 20.905457 50.157153 23.985156 51.725
      C 27.064855 53.292847 30.242237 53.640996 32.671094 53.964844
      C 35.042237 54.280996 37.464855 54.732534 38.785156 55.404688
      C 40.105457 56.076841 40.4 56.133333 40.4 58
      C 40.4 59.616667 39.855774 60.059019 38.33125 60.8375
      C 36.806726 61.615981 34.407408 62 33.2 62
      C 29.288889 62 26.856692 60.754239 22.685938 59.085938
      L 19.714062 66.514062
      C 23.543308 68.045761 27.511111 70 33.2 70
      C 35.592592 70 38.793274 69.584019 41.96875 67.9625
      C 45.144226 66.340981 48.4 62.783333 48.4 58
      C 48.4 53.466667 45.494543 49.842847 42.414844 48.275
      C 39.335145 46.707153 36.157763 46.359004 33.728906 46.035156
      C 31.357763 45.719004 28.935145 45.267466 27.614844 44.595312
      C 26.294543 43.923159 26 43.866667 26 42
      C 26 40.466667 26.584109 39.97982 28.189062 39.177344
      C 29.794016 38.374867 32.266667 38 33.2 38
      C 37.111111 38 39.543308 39.245761 43.714062 40.914062
      L 46.685938 33.485938
      C 42.856692 31.954239 38.888889 30 33.2 30
      Z
    "
  />
  <path
    fill="currentColor"
    d="
      M 52.8 30
      V 70
      H 76.8
      H 80.8
      V 62
      H 76.8
      H 60.8
      V 54
      H 72.8
      H 76.8
      V 46
      H 72.8
      H 60.8
      V 38
      H 76.8
      H 80.8
      V 30
      H 76.8
      Z
    "
  />
</svg>
