<svg xmlns="http://www.w3.org/2000/svg" viewBox="0 0 100 100">
  <path
    fill="currentColor"
    d="
      M 33.816406 30.029688
      C 30.906588 29.879861 27.94463 30.36342 25.146094 31.522656
      C 17.68334 34.61395 12.800781 41.922465 12.800781 50
      C 12.800782 58.077535 17.68334 65.386052 25.146094 68.477344
      C 32.608857 71.56864 41.230349 69.854028 46.942188 64.142188
      L 41.285156 58.485156
      C 37.84507 61.925244 32.702268 62.948455 28.207812 61.086719
      C 23.713372 59.224989 20.800782 54.865187 20.800781 50
      C 20.800781 45.134813 23.713372 40.775012 28.207812 38.913281
      C 32.702268 37.051544 37.84507 38.074757 41.285156 41.514844
      L 46.942188 35.857812
      C 43.372288 32.287913 38.666103 30.279399 33.816406 30.029688
      Z
    "
  />
  <path
    fill="currentColor"
    d="
      M 70.216406 30.029688
      C 67.306588 29.879861 64.34463 30.36342 61.546094 31.522656
      C 54.08334 34.61395 49.200781 41.922465 49.200781 50
      C 49.200782 58.077535 54.08334 65.386052 61.546094 68.477344
      C 69.008857 71.56864 77.630349 69.854028 83.342188 64.142188
      L 77.685156 58.485156
      C 74.24507 61.925244 69.102268 62.948455 64.607812 61.086719
      C 60.113372 59.224989 57.200782 54.865187 57.200781 50
      C 57.200781 45.134813 60.113372 40.775012 64.607812 38.913281
      C 69.102268 37.051544 74.24507 38.074757 77.685156 41.514844
      L 83.342188 35.857812
      C 79.772288 32.287913 75.066103 30.279399 70.216406 30.029688
      Z
    "
  />
</svg>
