<svg xmlns="http://www.w3.org/2000/svg" viewBox="0 0 100 100">
  <circle cx="50" cy="50" r="49" fill="#ffeb3b"></circle>
  <path
    transform="translate(-16,0) translate(50,50) scale(0.3) translate(-50,-50)"
    fill="none"
    stroke="#424242"
    stroke-width="24"
    d="
      M 85 10
      C 75 5 65 0 50 0
      C 40 0 15 5 15 25
      C 15 45 35 48 50 50
      C 65 52 85 55 85 75
      C 85 95 60 100 50 100
      C 35 100 25 95 15 90
    "
  ></path>
  <path
    transform="translate(16,0) translate(50,50) scale(0.3) translate(-50,-50)"
    fill="none"
    stroke="#424242"
    stroke-width="24"
    stroke-linecap="square"
    d="
      M 80 0
      L 20 0
      L 20 100
      L 80 100
      M 25 50
      L 65 50
    "
  ></path>
</svg>
