<svg xmlns="http://www.w3.org/2000/svg" viewBox="0 0 100 100">
  <path
    fill="currentColor"
    d="
      M 50 25
      C 47.166667 25 43.25748 25.531416 39.263672 27.52832
      C 35.269864 29.525224 31 33.916666 31 40
      C 31 45.666667 34.631821 50.196441 38.481445 52.15625
      C 42.331069 54.116058 46.302796 54.551245 49.338867 54.956054
      C 52.302796 55.351245 55.331069 55.915668 56.981445 56.755859
      C 58.631821 57.596051 59 57.666666 59 60
      C 59 62.020834 58.319718 62.573774 56.414062 63.546875
      C 54.508407 64.519976 51.509259 65 50 65
      C 45.111111 65 42.070865 63.442799 36.857422 61.357422
      L 33.142578 70.642578
      C 37.929135 72.557201 42.888889 75 50 75
      C 52.99074 75 56.991593 74.480024 60.960937 72.453125
      C 64.930282 70.426226 69 65.979166 69 60
      C 69 54.333333 65.368178 49.803558 61.518554 47.84375
      C 57.668931 45.883941 53.697203 45.448755 50.661133 45.043945
      C 47.697203 44.648755 44.668931 44.084332 43.018554 43.24414
      C 41.368178 42.403949 41 42.333333 41 40
      C 41 38.083334 41.730136 37.474775 43.736328 36.471679
      C 45.74252 35.468583 48.833333 35 50 35
      C 54.888889 35 57.929135 36.557201 63.142578 38.642578
      L 66.857422 29.357422
      C 62.070865 27.442799 57.111111 25 50 25
      Z
    "
  />
</svg>
