<svg xmlns="http://www.w3.org/2000/svg" viewBox="0 0 100 100">
  <path
    fill="currentColor"
    d="
      M 18.4 30
      V 34
      V 70
      H 36.4
      C 42.98004 70 48.4 64.580034 48.4 58
      C 48.4 54.926078 47.18528 52.133278 45.253906 50
      C 47.18528 47.866722 48.4 45.073922 48.4 42
      C 48.4 35.419966 42.98004 30 36.4 30
      Z
      M 26.4 38
      H 36.4
      C 38.656522 38 40.4 39.743479 40.4 42
      C 40.4 44.256521 38.656522 46 36.4 46
      H 26.4
      Z
      M 26.4 54
      H 36.4
      C 38.656522 54 40.4 55.743479 40.4 58
      C 40.4 60.256521 38.656522 62 36.4 62
      H 26.4
      Z
    "
  />
  <path
    fill="currentColor"
    d="
      M 53.6 30
      V 66
      V 70
      H 61.6
      V 66
      V 54
      H 71.6
      C 78.18004 54 83.6 48.580034 83.6 42
      C 83.6 35.419966 78.18004 30 71.6 30
      Z
      M 61.6 38
      H 71.6
      C 73.856522 38 75.6 39.743479 75.6 42
      C 75.6 44.256521 73.856522 46 71.6 46
      H 61.6
      Z
    "
  />
</svg>
