<svg xmlns="http://www.w3.org/2000/svg" viewBox="0 0 100 100">
  <path
    fill="currentColor"
    d="
      M 51.270508 25.037109
      C 47.633235 24.849826 43.930787 25.454275 40.432617 26.90332
      C 31.104175 30.767437 25.000976 39.903081 25.000977 50
      C 25.000977 60.096919 31.104175 69.232564 40.432617 73.096679
      C 49.761071 76.9608 60.537936 74.817535 67.677734 67.677734
      L 69.142578 66.21289
      V 45
      H 50
      V 55
      H 59.142578
      V 61.867187
      C 54.92626 65.121583 49.275338 65.935996 44.259765 63.858398
      C 38.641715 61.531236 35.000977 56.081484 35.000976 50
      C 35.000976 43.918516 38.641716 38.468764 44.259765 36.141601
      C 49.877835 33.81443 56.306337 35.093446 60.606445 39.393554
      L 67.677734 32.322265
      C 63.215359 27.859891 57.332628 25.349249 51.270508 25.037109
      Z
     "
  />
</svg>
